<svg width="263" height="494" viewBox="0 0 263 494" fill="none" xmlns="http://www.w3.org/2000/svg">
<path d="M61.5534 321.59C58.3416 322.646 57.9062 322.524 57.9062 322.524C57.9062 322.524 59.2279 322.191 61.5534 321.59C67.7697 319.547 84.3868 313.092 128.379 292.805C195.101 262.037 246.281 226.698 205.662 194.403C260.091 212.075 257.451 240.509 222.722 258.584C194.514 273.265 166.524 288.153 128.379 301.869C106.097 309.882 72.5669 318.744 61.5534 321.59Z" fill="#F1E79B"/>
<path d="M57.9062 322.524C57.9062 322.524 61.6572 323.574 128.379 292.805C195.101 262.037 246.281 226.698 205.662 194.403C260.091 212.075 257.451 240.509 222.722 258.584C194.514 273.265 166.524 288.153 128.379 301.869C101.392 311.573 57.9062 322.524 57.9062 322.524Z" stroke="white" stroke-width="2.07875"/>
<path d="M39.2721 267.08C36.0603 268.136 35.625 268.014 35.625 268.014C35.625 268.014 36.9467 267.681 39.2721 267.08C45.4885 265.037 62.1056 258.582 106.098 238.295C172.82 207.526 224 172.188 183.381 139.893C237.81 157.565 235.17 185.998 200.441 204.074C172.233 218.755 144.243 233.643 106.098 247.359C83.8153 255.371 50.2857 264.234 39.2721 267.08Z" fill="#F1E79B"/>
<path d="M35.625 268.014C35.625 268.014 39.3759 269.064 106.098 238.295C172.82 207.526 224 172.188 183.381 139.893C237.81 157.565 235.17 185.998 200.441 204.074C172.233 218.755 144.243 233.643 106.098 247.359C79.1104 257.063 35.625 268.014 35.625 268.014Z" stroke="white" stroke-width="2.07875"/>
<path d="M71.6553 136.885C60.5219 176.6 65.5811 216.079 74.45 244.736L86.7287 239.559C81.8599 153.711 106.018 80.3896 160.912 26.0635C106.014 55.6035 86.6552 83.3777 71.6553 136.885Z" fill="url(#paint0_linear_702_12)" stroke="white" stroke-width="2.07875"/>
<path d="M78.6641 263.047L89.6527 259.315C91.883 275.136 93.5445 283.548 97.8549 299.222L95.1046 300.718C90.9917 293.062 80.4545 272.668 78.6641 263.047Z" fill="url(#paint1_linear_702_12)" stroke="white" stroke-width="2.07875"/>
<path d="M150.069 206.369L120.695 222.818C115.995 171.121 128.449 124.829 177.092 76.1865C150.069 107.205 138.32 165.012 150.069 206.369Z" fill="url(#paint2_linear_702_12)" stroke="white" stroke-width="2.07875"/>
<path d="M139.11 279.308C132.476 266.359 129.859 259.239 126.812 246.901L160.272 231.687C166.916 242.275 169.252 247.803 172.878 260.129C160.757 269.029 152.763 273.555 139.11 279.308Z" fill="url(#paint3_linear_702_12)" stroke="white" stroke-width="2.07875"/>
<path d="M182.03 286.229L149.385 299.975C171.164 341.178 165.047 410.811 126.438 472.485C183.026 413.845 205.151 359.475 182.03 286.229Z" fill="url(#paint4_linear_702_12)" stroke="white" stroke-width="2.07875"/>
<path d="M160.174 131.375C166.911 104.197 179.108 87.8369 200.446 63.6177C206.463 57.8236 198.463 48.5528 192.003 53.2682C127.455 100.386 109.578 145.535 111.658 225.941L95.7099 234.697C89.0531 154.584 131.037 54.4234 184.753 21.4314C201.564 11.1057 195.149 1.49615 186.427 3.77192C58.6025 37.1661 40.5166 171.235 63.7291 246.468L14.4752 263.896C-4.82612 270.001 3.17298 283.788 23.5335 279.847C29.638 278.665 55.4345 273.742 67.8404 268.622L83.594 300.523L36.3339 319.428C23.3371 323.76 28.0627 336.363 42.4381 334.197L94.6218 321.791L112.935 347.784C119.434 357.63 131.052 352.116 125.538 342.861L112.935 316.08L140.671 308.029C158.817 364.764 156.882 416.461 113.563 473.271C100.791 490.019 112.127 496.404 124.902 484.017C196.552 414.544 212.237 369.456 193.182 284.984C275.529 246.763 272.298 221.397 229.197 193.879C255.157 159.348 196.643 118.831 160.174 131.375ZM160.174 131.375C157.554 141.948 151.812 159.946 157.554 199.529C193.453 176.848 199.888 161.55 160.174 131.375ZM99.1034 260.264L116.244 253.353C120.176 264.675 122.661 270.879 127.855 281.551L106.844 291.503C102.167 279.9 100.495 273.058 99.1034 260.264ZM172.64 229.301L206.92 209.95C214.401 223.172 211.322 231.598 182.459 251.187L172.64 229.301Z" stroke="#FEFEFE" stroke-width="6.9143"/>
<defs>
<linearGradient id="paint0_linear_702_12" x1="113.093" y1="26.0635" x2="113.093" y2="244.736" gradientUnits="userSpaceOnUse">
<stop stop-color="#FF90CF"/>
<stop offset="0.139423" stop-color="#FFEF9D"/>
<stop offset="0.3125" stop-color="#9ACEFF"/>
<stop offset="0.596154" stop-color="#F5B0EC"/>
<stop offset="0.783654" stop-color="#F4C4A5"/>
<stop offset="1" stop-color="#D882F3"/>
</linearGradient>
<linearGradient id="paint1_linear_702_12" x1="88.2595" y1="259.315" x2="88.2595" y2="300.718" gradientUnits="userSpaceOnUse">
<stop stop-color="#FF90CF"/>
<stop offset="0.139423" stop-color="#FFEF9D"/>
<stop offset="0.3125" stop-color="#9ACEFF"/>
<stop offset="0.596154" stop-color="#F5B0EC"/>
<stop offset="0.783654" stop-color="#F4C4A5"/>
<stop offset="1" stop-color="#D882F3"/>
</linearGradient>
<linearGradient id="paint2_linear_702_12" x1="148.433" y1="76.1865" x2="148.433" y2="222.818" gradientUnits="userSpaceOnUse">
<stop stop-color="#FF90CF"/>
<stop offset="0.139423" stop-color="#FFEF9D"/>
<stop offset="0.3125" stop-color="#9ACEFF"/>
<stop offset="0.596154" stop-color="#F5B0EC"/>
<stop offset="0.783654" stop-color="#F4C4A5"/>
<stop offset="1" stop-color="#D882F3"/>
</linearGradient>
<linearGradient id="paint3_linear_702_12" x1="149.845" y1="231.687" x2="149.845" y2="279.308" gradientUnits="userSpaceOnUse">
<stop stop-color="#FF90CF"/>
<stop offset="0.139423" stop-color="#FFEF9D"/>
<stop offset="0.3125" stop-color="#9ACEFF"/>
<stop offset="0.596154" stop-color="#F5B0EC"/>
<stop offset="0.783654" stop-color="#F4C4A5"/>
<stop offset="1" stop-color="#D882F3"/>
</linearGradient>
<linearGradient id="paint4_linear_702_12" x1="165.911" y1="286.229" x2="165.911" y2="455.256" gradientUnits="userSpaceOnUse">
<stop stop-color="#FF90CF"/>
<stop offset="0.139423" stop-color="#FFEF9D"/>
<stop offset="0.3125" stop-color="#9ACEFF"/>
<stop offset="0.596154" stop-color="#F5B0EC"/>
<stop offset="0.783654" stop-color="#F4C4A5"/>
<stop offset="1" stop-color="#D882F3"/>
</linearGradient>
</defs>
</svg>
